<?xml version="1.0" standalone="no"?>
<!DOCTYPE svg PUBLIC "-//W3C//DTD SVG 20010904//EN"
 "http://www.w3.org/TR/2001/REC-SVG-20010904/DTD/svg10.dtd">
<svg version="1.0" xmlns="http://www.w3.org/2000/svg"
 width="1024.000000pt" height="1024.000000pt" viewBox="0 0 1024.000000 1024.000000"
 preserveAspectRatio="xMidYMid meet">

<g transform="translate(0.000000,1024.000000) scale(0.100000,-0.100000)"
fill="#000000" stroke="none">
<path d="M5308 8161 c-60 -31 -247 -158 -333 -226 -50 -40 100 59 180 118 97
72 188 121 251 136 38 9 39 9 7 10 -19 1 -61 -14 -105 -38z"/>
<path d="M5503 8193 c9 -2 25 -2 35 0 9 3 1 5 -18 5 -19 0 -27 -2 -17 -5z"/>
<path d="M5990 7956 c0 -2 8 -10 18 -17 15 -13 16 -12 3 4 -13 16 -21 21 -21
13z"/>
<path d="M4879 7870 c-36 -27 -72 -57 -80 -67 -8 -9 11 3 42 27 31 25 69 55
85 67 16 12 27 22 24 22 -3 1 -35 -22 -71 -49z"/>
<path d="M6000 7826 c-141 -85 -226 -143 -405 -276 -206 -153 -376 -271 -352
-243 9 11 14 23 10 26 -3 4 -2 7 4 7 16 0 3 41 -15 48 -8 3 -27 16 -41 28
-151 133 -267 214 -307 214 -6 0 -19 10 -28 23 -16 22 -16 21 -9 -13 5 -19 8
-73 8 -120 -1 -100 -24 -155 -78 -189 -63 -38 -203 -23 -221 24 -3 9 -6 52 -6
95 0 81 -23 164 -56 206 -14 18 -15 18 -4 -4 7 -13 10 -25 8 -26 -2 -1 -28
-18 -59 -38 l-57 -37 -6 39 c-3 21 -15 59 -26 85 -11 26 -23 65 -26 87 -7 40
-7 40 17 28 20 -10 22 -10 11 1 -25 27 -142 51 -142 29 0 -6 3 -9 8 -9 21 4
30 -3 27 -20 -4 -21 38 -74 49 -63 4 3 4 -1 1 -10 -4 -9 -2 -19 4 -22 7 -4 3
-19 -9 -40 -12 -22 -15 -37 -9 -43 17 -17 -80 -75 -118 -71 -18 2 -33 3 -33 1
0 -1 18 -12 40 -23 48 -24 110 -26 153 -4 41 21 -91 -103 -169 -158 -30 -22
-54 -41 -54 -44 0 -8 92 57 148 105 29 25 56 46 60 46 4 0 13 4 21 9 10 6 12
5 7 -3 -5 -7 8 -18 37 -31 39 -17 48 -27 67 -75 26 -64 51 -87 123 -111 58
-20 166 -22 209 -5 21 8 27 8 25 -2 -3 -18 99 -65 172 -80 l64 -13 -51 -32
c-29 -18 -52 -36 -52 -42 0 -5 -7 -10 -16 -10 -8 0 -13 -4 -10 -9 3 -5 -2 -11
-12 -14 -9 -4 -74 -48 -143 -99 -69 -51 -170 -126 -225 -166 -85 -63 -339
-248 -563 -411 -83 -60 -365 -272 -426 -319 -5 -4 -41 -30 -80 -57 -38 -27
-88 -63 -111 -80 -22 -16 -105 -77 -184 -135 -78 -58 -188 -139 -244 -180 -56
-41 -120 -88 -143 -105 -39 -28 -322 -240 -458 -343 -33 -25 -114 -86 -180
-136 -143 -107 -248 -196 -240 -204 3 -3 27 15 53 40 26 26 70 61 97 80 28 18
113 81 190 140 178 137 484 364 690 513 88 64 228 165 310 226 83 60 193 140
245 176 52 37 124 90 160 118 36 28 166 126 290 216 320 234 329 241 596 432
265 189 273 195 454 329 69 50 184 134 255 185 72 50 159 114 195 140 290 212
368 268 460 329 58 38 126 80 153 92 44 21 57 35 40 45 -5 3 -46 -19 -93 -47z
m-800 -560 c0 -2 -7 -7 -16 -10 -8 -3 -12 -2 -9 4 6 10 25 14 25 6z"/>
<path d="M4079 7293 c-13 -16 -12 -17 4 -4 9 7 17 15 17 17 0 8 -8 3 -21 -13z"/>
<path d="M4009 7243 c-13 -16 -12 -17 4 -4 16 13 21 21 13 21 -2 0 -10 -8 -17
-17z"/>
<path d="M3964 7208 l-19 -23 23 19 c21 18 27 26 19 26 -2 0 -12 -10 -23 -22z"/>
<path d="M3919 7173 c-13 -16 -12 -17 4 -4 9 7 17 15 17 17 0 8 -8 3 -21 -13z"/>
<path d="M3860 7129 l-35 -30 38 26 c33 24 43 35 34 35 -1 0 -18 -14 -37 -31z"/>
<path d="M3799 7083 c-13 -16 -12 -17 4 -4 9 7 17 15 17 17 0 8 -8 3 -21 -13z"/>
<path d="M6168 7093 c6 -2 18 -2 25 0 6 3 1 5 -13 5 -14 0 -19 -2 -12 -5z"/>
<path d="M6058 7083 c12 -2 32 -2 45 0 12 2 2 4 -23 4 -25 0 -35 -2 -22 -4z"/>
<path d="M6348 7083 c7 -3 16 -2 19 1 4 3 -2 6 -13 5 -11 0 -14 -3 -6 -6z"/>
<path d="M3690 7009 c-47 -33 -92 -67 -100 -76 -17 -17 158 102 180 123 26 25
6 14 -80 -47z"/>
<path d="M3549 6903 c-13 -16 -12 -17 4 -4 9 7 17 15 17 17 0 8 -8 3 -21 -13z"/>
<path d="M6687 6885 c6 -18 5 -19 -11 -6 -9 8 -16 10 -15 5 1 -5 0 -18 -1 -29
-2 -17 -3 -17 -10 5 -8 25 -8 25 -9 2 -1 -13 -5 -21 -10 -18 -16 10 -34 -24
-36 -67 -2 -58 -13 -80 -30 -64 -7 7 -11 15 -9 19 2 4 -1 10 -7 14 -7 4 -9 3
-5 -4 3 -6 2 -13 -4 -17 -6 -4 -8 -11 -5 -16 4 -5 1 -9 -4 -9 -6 0 -11 -9 -11
-21 0 -13 -4 -18 -12 -13 -10 6 -10 5 -1 -7 16 -19 13 -56 -4 -56 -10 0 -10 4
-3 11 5 5 10 15 10 20 0 6 -7 0 -16 -12 -8 -12 -21 -22 -28 -22 -7 0 -13 -7
-13 -15 0 -12 3 -12 16 -2 14 11 14 10 2 -5 -7 -10 -20 -18 -28 -18 -8 0 -11
-5 -8 -10 4 -6 12 -7 18 -3 7 4 6 0 -2 -10 -15 -18 -26 -23 -16 -7 3 6 2 10
-3 10 -5 0 -9 -13 -9 -30 0 -18 4 -27 11 -23 6 4 5 0 -2 -9 -8 -10 -9 -19 -3
-22 5 -4 8 -18 5 -32 -3 -19 -1 -24 8 -18 10 5 11 4 1 -6 -17 -19 -48 -23 -33
-5 12 14 24 62 13 51 -4 -4 -8 -14 -9 -24 -2 -9 -8 -18 -13 -20 -6 -2 -11 -12
-11 -23 0 -10 -5 -19 -11 -19 -5 0 -7 -4 -4 -10 3 -5 2 -10 -3 -10 -5 0 -7
-11 -5 -24 3 -13 -1 -27 -8 -31 -8 -6 -10 -4 -4 5 5 9 4 11 -4 6 -6 -4 -8 -13
-4 -19 4 -6 6 -27 4 -45 -2 -23 1 -32 8 -28 7 5 8 1 5 -9 -4 -8 -1 -22 5 -29
8 -10 9 -16 1 -21 -6 -3 -7 -12 -3 -18 4 -7 8 -15 8 -19 0 -5 5 -7 10 -5 6 1
9 5 8 8 -1 3 5 6 13 6 12 0 12 -3 0 -16 -14 -17 -11 -45 5 -35 5 3 8 0 7 -7
-2 -7 5 -13 15 -14 9 0 16 4 15 10 -2 6 -6 9 -10 8 -5 -2 -7 3 -5 10 1 6 -4
11 -12 9 -12 -3 -12 -1 -1 15 22 28 24 29 17 11 -8 -23 15 -41 33 -25 12 10
12 9 2 -5 -8 -10 -9 -19 -3 -22 5 -3 11 -1 13 6 3 7 5 -3 6 -22 1 -19 4 -45 6
-58 3 -13 1 -20 -5 -17 -5 4 -9 13 -9 21 0 8 -4 14 -10 14 -5 0 -10 5 -10 11
0 5 6 7 13 3 7 -5 6 -1 -3 10 -13 17 -14 17 -21 -1 -7 -20 -1 -45 10 -38 11 6
0 -58 -12 -75 -9 -12 -9 -13 3 -2 24 21 34 13 14 -10 -13 -16 -14 -19 -2 -10
9 7 18 9 20 5 3 -4 3 -2 2 5 -2 6 2 12 9 12 8 0 7 3 -2 9 -22 14 -22 40 -1 34
10 -3 21 0 24 6 4 6 4 11 -1 11 -4 0 -9 19 -11 43 -1 30 1 38 8 27 7 -11 10
-6 10 23 0 20 5 37 11 37 5 0 7 5 4 10 -3 6 -1 10 6 10 7 0 9 3 6 6 -4 4 11
39 33 79 21 40 36 76 32 80 -4 3 -1 9 5 13 7 4 14 20 17 35 2 14 7 31 11 37 3
5 8 20 10 32 3 11 14 31 25 43 11 12 17 24 13 28 -3 4 2 16 12 27 10 11 15 20
10 20 -4 0 -2 7 5 15 7 8 10 21 7 30 -4 8 -2 17 3 20 6 4 6 14 -1 26 -6 12 -8
23 -5 27 3 3 6 -1 6 -8 0 -11 3 -11 12 -2 7 7 21 12 33 13 15 0 16 2 5 7 -25
12 -21 30 5 27 22 -2 23 0 13 13 -11 13 -10 15 4 9 10 -3 17 -3 17 1 -1 4 0 9
1 12 8 21 6 37 -6 37 -10 0 -11 -4 -4 -12 8 -9 6 -14 -5 -19 -9 -3 -13 -2 -10
4 3 6 3 16 -2 23 -13 20 -13 39 0 29 23 -18 42 -9 42 19 1 15 -3 25 -9 22 -5
-4 -7 1 -3 10 3 9 -1 21 -11 29 -15 11 -15 11 -5 -2 8 -10 9 -21 3 -30 -8 -13
-10 -13 -10 1 0 8 -7 24 -15 35 -15 19 -15 19 -9 -1 5 -15 0 -13 -21 10 -14
17 -24 24 -20 18 3 -7 2 -13 -4 -13 -5 0 -12 6 -14 13 -4 8 -6 8 -6 -2 -1 -11
-5 -10 -16 5 -15 19 -15 19 -8 -1z m40 -28 c6 -4 13 -2 15 4 2 6 9 0 16 -15 7
-16 8 -27 1 -31 -5 -4 -9 -3 -8 2 3 20 -2 34 -11 28 -6 -4 -8 -10 -5 -15 3 -4
-3 -14 -13 -21 -15 -12 -16 -12 -4 2 10 13 10 19 -2 28 -11 9 -18 7 -32 -12
-22 -28 -35 -30 -52 -8 -11 15 -12 15 -6 0 3 -10 0 -20 -7 -25 -8 -4 -10 -3
-5 4 4 7 2 12 -5 12 -10 0 -10 3 -1 12 15 15 42 19 42 7 0 -5 5 -9 10 -9 6 0
9 3 9 8 -4 26 3 39 24 38 12 -1 27 -5 34 -9z m-17 -31 c0 -2 -8 -10 -17 -17
-16 -13 -17 -12 -4 4 13 16 21 21 21 13z m100 -27 c0 7 5 9 12 5 9 -6 9 -9 0
-12 -7 -2 -10 -8 -6 -13 10 -17 -3 -9 -22 13 -15 19 -16 20 -1 9 12 -10 17
-10 17 -2z m-50 -78 c7 -15 7 -22 -2 -27 -7 -4 -10 -4 -6 1 4 4 3 16 -3 26 -5
11 -7 19 -5 19 3 0 10 -9 16 -19z m-203 -54 c1 -30 -1 -37 -9 -26 -7 11 -9 9
-5 -8 3 -13 0 -26 -6 -30 -7 -3 -9 -3 -5 1 4 5 3 18 -2 31 -6 15 -4 31 5 48 7
14 11 28 9 31 -2 3 -1 3 3 0 5 -3 9 -24 10 -47z m-156 -316 c-6 -10 -7 -22 -3
-26 4 -5 1 -5 -6 -1 -9 5 -9 12 -2 27 6 10 13 19 16 19 2 0 0 -8 -5 -19z m-14
-158 c-4 -3 -1 -13 6 -22 11 -14 10 -14 -5 -2 -16 12 -16 31 -1 31 4 0 3 -3 0
-7z"/>
<path d="M6679 6843 c-13 -16 -12 -17 4 -4 9 7 17 15 17 17 0 8 -8 3 -21 -13z"/>
<path d="M6537 6671 c-4 -17 -3 -21 5 -13 5 5 8 16 6 23 -3 8 -7 3 -11 -10z"/>
<path d="M3499 6863 c-13 -16 -12 -17 4 -4 9 7 17 15 17 17 0 8 -8 3 -21 -13z"/>
<path d="M6065 6850 c-104 -15 -227 -50 -310 -90 -154 -74 -293 -201 -347
-319 -62 -135 -57 -119 -72 -238 -6 -49 13 -192 30 -221 10 -18 13 -20 10 -7
-29 112 -32 178 -10 283 21 102 65 183 144 263 152 154 336 238 566 260 121
11 316 -1 354 -21 16 -9 22 -6 36 22 9 18 24 42 33 53 14 18 14 18 0 7 -12 -9
-29 -10 -67 -2 -74 14 -298 20 -367 10z"/>
<path d="M7038 6805 c30 -27 33 -33 15 -28 -12 3 -21 10 -20 17 1 6 -4 10 -11
8 -8 -1 -11 2 -7 8 11 18 -7 10 -26 -12 -12 -13 -19 -16 -19 -8 0 7 -3 10 -6
7 -4 -4 -1 -14 7 -24 8 -10 9 -14 2 -10 -9 6 -11 -2 -9 -28 2 -19 0 -37 -4
-40 -4 -3 -7 8 -6 24 2 28 -13 36 -31 16 -4 -4 -2 -5 5 -1 8 5 12 0 12 -16 0
-18 -2 -20 -10 -8 -8 12 -10 11 -10 -7 0 -13 -4 -23 -9 -23 -5 0 -8 -8 -7 -17
2 -10 -2 -21 -8 -25 -8 -5 -7 -8 2 -8 7 0 11 -4 7 -9 -3 -5 10 -21 28 -35 18
-14 49 -45 67 -68 28 -36 22 -32 -36 22 -66 62 -139 108 -151 96 -12 -12 9
-36 61 -71 71 -47 120 -102 175 -199 62 -109 70 -138 70 -251 1 -84 -4 -114
-27 -183 -16 -45 -25 -79 -20 -74 16 16 48 123 59 196 17 115 -2 228 -57 334
-23 46 -36 78 -28 71 8 -6 31 -46 53 -89 51 -103 70 -220 52 -330 -20 -120
-88 -247 -183 -342 -42 -43 -85 -78 -95 -78 -14 0 -13 3 7 16 45 30 141 128
156 159 8 17 9 21 2 11 -27 -41 -104 -118 -152 -153 -28 -20 -55 -41 -61 -47
-10 -11 -24 -17 -162 -68 -48 -18 -83 -37 -83 -44 0 -8 -9 -14 -20 -14 -11 0
-20 -4 -20 -8 0 -10 -29 -13 -50 -5 -9 3 6 11 35 19 53 14 49 14 -80 -6 l-50
-8 43 -1 c23 0 42 -6 42 -12 0 -7 10 -9 24 -7 23 5 25 3 21 -34 -3 -28 -1 -37
8 -32 9 5 9 4 0 -6 -13 -14 -6 -43 8 -34 5 3 6 -3 2 -12 -5 -14 -9 -12 -22 12
-8 16 -14 34 -12 39 8 28 9 45 2 50 -5 2 -8 -3 -8 -13 0 -38 -5 -46 -14 -22
l-8 25 2 -25 c1 -14 -3 -32 -7 -40 -5 -8 -5 -11 -1 -7 5 4 15 -3 22 -15 7 -14
12 -17 13 -9 0 11 3 10 13 -4 10 -13 16 -15 21 -6 6 9 12 7 22 -6 13 -17 14
-17 7 1 -5 15 -3 17 8 10 19 -12 38 -14 44 -4 2 4 -5 7 -17 6 -12 0 -23 6 -25
14 -3 9 -1 11 4 5 4 -6 15 -10 23 -10 8 1 19 -1 25 -4 14 -7 49 -6 63 3 7 4
12 2 12 -6 0 -9 3 -9 10 2 5 8 10 12 10 9 0 -6 71 5 153 25 12 3 -9 -10 -48
-28 -68 -34 -125 -50 -350 -100 -94 -20 -145 -25 -345 -29 -224 -5 -240 -4
-329 19 -96 24 -127 27 -68 6 138 -48 308 -72 526 -72 182 0 323 21 476 70
228 75 355 150 511 305 75 74 99 105 133 175 54 111 81 220 88 350 15 286
-118 540 -382 730 -80 58 -112 66 -57 15z m412 -671 c0 -152 -58 -326 -155
-464 -48 -70 -193 -196 -266 -233 -30 -14 -69 -36 -87 -48 -20 -13 -30 -16
-27 -8 3 8 42 32 86 54 86 43 239 171 281 235 38 58 70 121 79 154 5 17 23 72
40 121 30 83 33 100 33 218 1 82 4 116 9 95 4 -18 7 -74 7 -124z m-810 -621
c0 -5 -11 -13 -25 -20 -14 -6 -25 -7 -25 -2 0 5 10 14 23 19 29 11 27 11 27 3z
m-132 -168 c-3 -3 -9 2 -12 12 -6 14 -5 15 5 6 7 -7 10 -15 7 -18z"/>
<path d="M3419 6803 c-13 -16 -12 -17 4 -4 9 7 17 15 17 17 0 8 -8 3 -21 -13z"/>
<path d="M6566 6793 c5 -5 12 -12 16 -18 4 -6 8 -2 8 8 0 9 -7 17 -17 17 -9 0
-12 -3 -7 -7z"/>
<path d="M3370 6769 c-22 -18 -22 -19 -3 -10 12 6 25 16 28 21 9 15 3 12 -25
-11z"/>
<path d="M6935 6781 c-3 -5 -2 -12 3 -15 5 -3 9 1 9 9 0 17 -3 19 -12 6z"/>
<path d="M5244 6738 l-29 -33 33 29 c30 28 37 36 29 36 -2 0 -16 -15 -33 -32z"/>
<path d="M6576 6745 c-9 -26 -7 -32 5 -12 6 10 9 21 6 23 -2 3 -7 -2 -11 -11z"/>
<path d="M3305 6724 l-30 -26 33 22 c17 12 32 23 32 26 0 7 -4 5 -35 -22z"/>
<path d="M3145 6609 c-66 -50 -129 -100 -140 -111 -19 -20 224 161 255 189 37
33 -5 5 -115 -78z"/>
<path d="M5194 6678 c-30 -34 -47 -58 -42 -58 3 0 19 18 37 40 34 43 38 55 5
18z"/>
<path d="M6763 6558 c-31 -62 -110 -284 -194 -546 -48 -152 -64 -170 -164
-190 -82 -16 -154 -4 -253 42 -53 25 -110 48 -127 52 -16 4 -50 17 -75 30 -56
29 -176 55 -253 56 -50 0 -60 3 -74 25 -9 14 -20 41 -24 61 -8 36 -8 36 -5 -6
5 -55 47 -119 91 -138 18 -7 66 -19 107 -25 82 -12 252 -75 379 -140 80 -41
88 -44 169 -44 68 0 93 5 125 22 74 39 75 41 180 418 43 152 89 284 127 358
16 32 28 65 26 74 -2 8 -17 -14 -35 -49z"/>
<path d="M5111 6563 c-69 -137 -100 -248 -108 -390 -8 -149 19 -287 84 -419
67 -137 249 -330 363 -383 21 -10 22 -9 6 1 -35 23 -130 105 -176 149 -82 81
-194 278 -222 389 -57 229 -48 373 34 579 46 114 53 139 19 74z"/>
<path d="M2959 6463 c-13 -16 -12 -17 4 -4 9 7 17 15 17 17 0 8 -8 3 -21 -13z"/>
<path d="M2825 6376 c-28 -18 -57 -42 -65 -51 -8 -10 5 -3 30 16 25 19 57 42
70 51 14 9 23 17 20 17 -3 1 -28 -14 -55 -33z"/>
<path d="M2216 6355 c-3 -8 -9 -15 -13 -14 -32 5 -74 -33 -52 -46 5 -4 7 -12
3 -18 -3 -7 0 -5 8 3 12 14 36 21 82 24 16 1 23 -14 43 -94 l23 -95 -31 -26
c-30 -26 -65 -38 -118 -40 -19 -1 -15 -4 16 -11 51 -11 112 3 138 32 18 20 18
23 -5 98 -13 42 -25 95 -28 116 -3 25 -14 48 -30 63 -30 27 -28 27 -36 8z"/>
<path d="M2297 6319 c7 -7 15 -10 18 -7 3 3 -2 9 -12 12 -14 6 -15 5 -6 -5z"/>
<path d="M6333 6204 c1 -21 6 -44 10 -50 3 -6 3 -14 0 -18 -10 -10 -12 -37 -3
-31 5 3 7 -8 5 -25 -3 -26 -1 -29 11 -19 17 14 19 -2 2 -20 -10 -11 -10 -13 0
-7 11 6 17 -11 13 -36 0 -5 4 -8 9 -8 6 0 10 -8 11 -17 0 -17 1 -17 8 0 10 26
21 26 37 -3 l15 -25 -7 25 c-4 14 -7 36 -6 50 0 24 0 24 -10 -4 -8 -21 -13
-25 -19 -15 -5 8 -8 21 -8 29 0 10 3 8 9 -5 7 -15 9 -16 9 -4 1 20 -23 42 -34
31 -5 -4 -5 1 -2 10 3 9 -1 22 -9 29 -8 6 -12 14 -9 17 3 3 0 11 -6 18 -7 8
-7 14 1 19 8 5 7 11 -2 22 -7 8 -14 27 -16 41 -5 43 -13 40 -9 -4z m41 -122
c3 -5 -1 -9 -9 -9 -8 0 -15 4 -15 9 0 4 4 8 9 8 6 0 12 -4 15 -8z m22 -64 c1
-35 -1 -35 -14 0 -7 21 -7 29 2 29 6 0 11 -13 12 -29z"/>
<path d="M6085 6205 c11 -9 29 -21 40 -26 l20 -10 -20 16 c-11 9 -29 21 -40
26 l-20 10 20 -16z"/>
<path d="M6150 6164 c0 -2 18 -13 40 -24 22 -11 40 -17 40 -13 0 5 -18 16 -40
25 -22 9 -40 15 -40 12z"/>
<path d="M2389 6101 c-41 -33 -108 -95 -149 -138 -63 -66 -67 -71 -25 -37 28
22 58 45 69 51 29 16 88 -9 111 -47 83 -133 226 -198 345 -156 24 8 47 12 50
7 3 -4 12 -8 20 -9 8 0 35 -4 60 -8 82 -14 136 -9 171 17 18 12 29 17 24 9 -6
-9 -4 -11 4 -6 7 5 10 14 7 22 -3 8 0 13 6 11 7 -1 12 3 13 10 0 6 3 14 6 18
9 8 -29 85 -41 85 -6 0 -10 8 -10 17 0 9 -3 13 -6 10 -7 -7 -64 52 -64 66 0 5
-4 5 -10 2 -5 -3 -10 -2 -10 3 0 14 -83 92 -97 92 -7 0 -16 8 -22 18 -7 12 -9
-10 -8 -73 2 -78 -1 -97 -23 -140 -33 -67 -77 -95 -147 -95 -59 0 -107 19
-123 49 -5 11 -10 53 -10 93 -1 74 -32 177 -56 185 -7 2 -45 -23 -85 -56z"/>
<path d="M6510 6015 c0 -5 5 -17 10 -25 5 -8 10 -10 10 -5 0 6 -5 17 -10 25
-5 8 -10 11 -10 5z"/>
<path d="M6413 5945 c0 -8 4 -12 9 -9 5 3 6 10 3 15 -9 13 -12 11 -12 -6z"/>
<path d="M5380 5946 c0 -11 30 -66 36 -66 2 0 -3 15 -12 33 -19 36 -24 44 -24
33z"/>
<path d="M6385 5941 c-3 -5 -2 -12 3 -15 5 -3 9 1 9 9 0 17 -3 19 -12 6z"/>
<path d="M2134 5868 l-19 -23 23 19 c12 11 22 21 22 23 0 8 -8 2 -26 -19z"/>
<path d="M5430 5851 c5 -11 15 -23 21 -27 6 -3 3 5 -6 20 -20 30 -30 35 -15 7z"/>
<path d="M2019 5783 c-13 -16 -12 -17 4 -4 16 13 21 21 13 21 -2 0 -10 -8 -17
-17z"/>
<path d="M4205 5780 c-22 -11 -94 -61 -160 -111 -66 -50 -177 -129 -247 -175
-69 -45 -133 -93 -142 -106 -17 -23 -22 -93 -8 -102 4 -2 6 11 4 30 -6 50 16
75 131 152 121 81 155 105 271 196 48 38 116 84 150 102 66 36 67 47 1 14z"/>
<path d="M1979 5753 c-13 -16 -12 -17 4 -4 9 7 17 15 17 17 0 8 -8 3 -21 -13z"/>
<path d="M1919 5703 c-13 -16 -12 -17 4 -4 9 7 17 15 17 17 0 8 -8 3 -21 -13z"/>
<path d="M1864 5658 l-19 -23 23 19 c21 18 27 26 19 26 -2 0 -12 -10 -23 -22z"/>
<path d="M1819 5623 c-13 -16 -12 -17 4 -4 9 7 17 15 17 17 0 8 -8 3 -21 -13z"/>
<path d="M1779 5593 c-13 -16 -12 -17 4 -4 9 7 17 15 17 17 0 8 -8 3 -21 -13z"/>
<path d="M1700 5536 c-30 -24 -68 -59 -85 -77 -17 -19 -6 -12 25 16 30 28 71
62 90 77 19 15 33 27 30 28 -3 0 -30 -20 -60 -44z"/>
<path d="M6108 5473 c7 -3 16 -2 19 1 4 3 -2 6 -13 5 -11 0 -14 -3 -6 -6z"/>
<path d="M6253 5463 c26 -2 67 -2 90 0 23 2 2 3 -48 3 -49 0 -68 -1 -42 -3z"/>
<path d="M3160 5434 c0 -8 5 -24 10 -35 10 -18 7 -19 -41 -19 -63 0 -59 -10 5
-15 61 -5 69 -11 62 -48 -6 -29 -5 -30 8 -12 21 28 20 46 -10 99 -28 49 -34
55 -34 30z"/>
<path d="M4726 5375 c-17 -9 -73 -49 -125 -88 -91 -69 -191 -140 -362 -256
-84 -57 -107 -90 -90 -133 5 -14 16 -29 23 -33 10 -6 11 -5 1 6 -7 7 -13 29
-13 49 0 44 10 54 145 142 55 36 150 102 210 146 190 140 213 155 262 168 46
12 47 13 13 13 -19 1 -48 -6 -64 -14z"/>
<path d="M4848 5383 c6 -2 18 -2 25 0 6 3 1 5 -13 5 -14 0 -19 -2 -12 -5z"/>
<path d="M3040 5345 c0 -11 -16 -31 -34 -45 -49 -36 -33 -45 17 -9 27 19 49
28 60 23 36 -13 12 -42 -50 -59 -33 -9 -28 -25 6 -25 20 0 37 9 55 31 34 40
33 54 -6 70 -18 7 -36 18 -40 23 -5 7 -8 3 -8 -9z"/>
<path d="M5480 5355 c0 -7 141 -77 146 -73 2 2 -30 21 -71 41 -41 20 -75 35
-75 32z"/>
<path d="M4975 5320 c10 -11 20 -20 23 -20 3 0 -3 9 -13 20 -10 11 -20 20 -23
20 -3 0 3 -9 13 -20z"/>
<path d="M2911 5244 l-24 -17 24 -19 c45 -35 56 -39 70 -21 13 15 11 16 -12
10 -19 -5 -31 -1 -44 13 -18 19 -16 22 14 24 19 1 27 26 9 26 -7 0 -24 -7 -37
-16z"/>
<path d="M3406 5212 c-2 -4 12 -6 32 -4 62 6 69 10 20 11 -26 0 -49 -3 -52 -7z"/>
<path d="M2830 5183 c-23 -10 -30 -17 -20 -21 7 -3 16 0 18 7 2 6 12 11 23 11
10 0 19 5 19 10 0 12 3 13 -40 -7z"/>
<path d="M2871 5129 c-13 -11 -21 -22 -18 -25 9 -9 47 16 47 31 0 19 0 19 -29
-6z"/>
<path d="M2810 5130 c0 -5 5 -10 10 -10 6 0 10 5 10 10 0 6 -4 10 -10 10 -5 0
-10 -4 -10 -10z"/>
<path d="M2715 5094 c-12 -19 -14 -29 -6 -37 10 -10 16 1 13 25 -2 14 29 30
45 23 16 -6 15 -8 -7 -21 -19 -11 -20 -14 -6 -12 10 2 25 13 34 26 14 21 13
22 -21 22 -26 0 -39 -6 -52 -26z"/>
<path d="M3170 5034 c-52 -41 -149 -113 -216 -159 -121 -85 -145 -112 -143
-163 l1 -27 7 30 c14 56 29 71 203 198 160 118 260 197 248 196 -3 0 -48 -34
-100 -75z"/>
<path d="M2775 5050 c-10 -11 -25 -20 -34 -20 -11 0 -12 -3 -4 -11 8 -8 19 -5
42 12 30 22 40 39 23 39 -5 0 -17 -9 -27 -20z"/>
<path d="M2628 5034 c-32 -17 -36 -48 -12 -82 19 -28 29 -28 59 3 28 27 32 45
10 45 -8 0 -15 -9 -15 -19 0 -22 -29 -36 -44 -21 -16 16 6 64 32 68 12 2 20 8
17 13 -8 12 -15 11 -47 -7z"/>
<path d="M2497 4982 c-44 -44 -49 -62 -7 -32 l29 21 20 -40 c19 -36 41 -61 41
-46 0 3 -10 25 -22 48 -12 23 -21 52 -19 65 1 12 1 22 -1 22 -2 -1 -20 -18
-41 -38z"/>
<path d="M5267 4981 c-36 -18 -134 -88 -317 -226 -52 -39 -124 -89 -160 -110
-87 -53 -110 -79 -109 -124 1 -20 3 -27 6 -16 2 11 6 30 8 42 3 14 40 45 108
89 56 37 138 95 182 129 115 89 302 214 331 221 14 4 42 4 62 1 25 -5 32 -3
22 3 -25 16 -93 11 -133 -9z"/>
<path d="M3479 4843 c-13 -16 -12 -17 4 -4 9 7 17 15 17 17 0 8 -8 3 -21 -13z"/>
<path d="M6069 4809 c-21 -6 -48 -22 -60 -36 l-24 -25 38 25 c45 31 103 42
141 27 16 -6 56 -31 90 -57 76 -57 90 -66 51 -31 -59 53 -133 99 -166 103 -19
2 -50 -1 -70 -6z"/>
<path d="M3868 4761 c-40 -28 -119 -86 -174 -129 -56 -44 -157 -117 -224 -163
-130 -89 -147 -106 -155 -160 l-5 -34 11 36 c14 48 43 74 187 173 66 44 180
126 253 182 157 119 170 126 229 135 l45 6 -47 2 c-40 1 -56 -6 -120 -48z"/>
<path d="M4061 4787 c2 -1 13 -9 24 -17 19 -14 19 -14 6 3 -7 9 -18 17 -24 17
-6 0 -8 -1 -6 -3z"/>
<path d="M4150 4718 c24 -27 45 -48 47 -48 8 0 0 9 -44 50 l-48 45 45 -47z"/>
<path d="M6000 4636 c0 -2 8 -10 18 -17 15 -13 16 -12 3 4 -13 16 -21 21 -21
13z"/>
<path d="M3125 4594 c-22 -13 -35 -24 -30 -24 12 0 75 38 75 45 0 6 2 7 -45
-21z"/>
<path d="M6550 4526 c0 -2 14 -14 30 -26 17 -12 30 -19 30 -16 0 2 -13 14 -30
26 -16 12 -30 19 -30 16z"/>
<path d="M5940 4507 c0 -2 21 -18 48 -36 35 -25 40 -26 17 -6 -30 26 -65 49
-65 42z"/>
<path d="M6624 4472 c8 -13 66 -56 66 -49 0 3 -17 17 -37 33 -20 15 -33 23
-29 16z"/>
<path d="M6040 4436 c0 -2 8 -10 18 -17 15 -13 16 -12 3 4 -13 16 -21 21 -21
13z"/>
<path d="M6715 4402 c11 -13 29 -28 40 -34 21 -11 18 -8 -30 32 -29 24 -29 24
-10 2z"/>
<path d="M4409 4373 c-30 -21 -84 -59 -120 -85 -127 -93 -245 -178 -327 -233
-86 -59 -123 -102 -121 -145 1 -21 2 -20 9 8 10 44 30 64 130 133 222 154 342
238 408 287 79 59 127 73 184 53 25 -9 30 -9 20 1 -6 6 -38 14 -69 16 -54 4
-62 1 -114 -35z"/>
<path d="M6110 4386 c0 -2 8 -10 18 -17 15 -13 16 -12 3 4 -13 16 -21 21 -21
13z"/>
<path d="M4640 4356 c0 -2 8 -10 18 -17 15 -13 16 -12 3 4 -13 16 -21 21 -21
13z"/>
<path d="M6150 4356 c0 -3 35 -30 78 -60 42 -31 103 -76 135 -101 31 -26 57
-44 57 -41 0 7 -120 102 -202 160 -38 26 -68 45 -68 42z"/>
<path d="M8646 4226 c-75 -174 -169 -272 -510 -532 -136 -104 -303 -232 -370
-283 -156 -122 -524 -398 -701 -526 -76 -55 -199 -145 -274 -201 -75 -55 -155
-113 -178 -130 -23 -16 -101 -74 -175 -130 -499 -378 -669 -500 -764 -547
-100 -50 -294 -113 -387 -126 -260 -36 -581 25 -806 152 -50 29 -194 125 -319
214 -125 90 -283 202 -351 250 -68 49 -160 115 -205 148 -45 33 -117 85 -162
115 -102 69 -176 122 -483 340 -486 347 -668 477 -766 551 -55 41 -115 85
-132 98 -54 37 -37 16 19 -25 29 -21 139 -102 243 -179 105 -78 219 -161 255
-185 36 -24 130 -92 210 -150 139 -103 242 -175 889 -630 50 -36 140 -100 198
-143 109 -80 446 -318 568 -402 151 -103 560 -250 748 -269 72 -8 118 -17 167
-33 25 -8 56 -17 70 -19 14 -2 41 -6 60 -9 19 -3 41 -7 48 -10 8 -3 10 0 6 8
-4 6 1 5 12 -4 10 -9 30 -17 44 -17 14 0 46 -3 73 -6 35 -5 47 -3 47 6 0 9 3
9 8 3 4 -6 41 -11 85 -10 43 0 81 -3 83 -7 3 -5 13 -5 22 0 9 4 33 7 52 5 19
-1 65 -3 102 -5 37 -2 72 -8 79 -15 6 -6 23 -8 44 -3 19 4 36 6 38 4 2 -3 13
-6 23 -8 11 -3 28 -8 38 -12 13 -5 17 -4 12 4 -3 6 -2 14 4 17 6 4 9 1 8 -7
-2 -8 8 -14 25 -16 16 -2 25 -8 21 -14 -4 -6 0 -7 12 -1 11 5 35 8 54 8 19 -1
41 3 48 8 9 7 11 6 7 -6 -4 -8 -1 -18 6 -23 7 -4 10 -3 6 3 -14 22 23 22 39 0
10 -14 14 -16 11 -5 -3 9 0 19 8 22 15 5 39 -17 28 -27 -3 -4 -1 -7 5 -7 7 0
12 6 12 13 0 8 3 8 8 2 8 -13 22 -13 41 -1 11 7 12 6 6 -5 -7 -12 -6 -12 7 -1
11 9 18 10 23 2 4 -7 12 -7 27 1 11 6 29 9 39 6 10 -3 21 -1 24 4 3 4 13 5 22
2 12 -5 14 -3 9 8 -4 8 0 5 8 -5 9 -11 16 -15 16 -10 0 6 13 9 29 8 22 -1 28
2 24 12 -3 8 -1 14 3 15 5 0 19 2 32 3 17 2 21 -1 17 -13 -5 -13 -4 -14 6 -3
17 16 32 15 26 -2 -6 -15 17 -16 30 -1 4 4 2 5 -4 1 -7 -4 -13 -2 -13 4 0 6
14 13 30 17 17 3 30 11 30 18 0 14 25 14 37 0 4 -4 3 -5 -4 -1 -6 3 -14 2 -17
-3 -7 -10 13 -9 31 2 6 4 15 3 18 -3 5 -8 11 -7 21 1 11 9 14 8 14 -2 1 -10 4
-9 10 3 6 10 19 15 30 13 11 -2 18 0 15 5 -3 4 1 10 7 13 7 3 3 4 -9 4 -12 -1
-19 -5 -17 -9 3 -5 2 -8 -3 -7 -4 1 -10 0 -13 -1 -18 -8 -80 -5 -76 4 2 6 10
9 17 7 29 -7 54 -6 52 4 -1 6 17 11 38 12 29 2 38 -1 34 -10 -4 -6 -1 -5 7 3
7 9 27 15 46 14 17 0 32 2 32 6 0 4 -14 7 -31 8 -36 1 -54 12 -20 12 15 0 20
4 15 13 -5 7 0 6 11 -3 11 -9 16 -10 11 -2 -4 6 -3 12 3 12 5 0 12 -6 14 -12
3 -7 6 -2 6 12 1 20 3 22 11 10 8 -13 10 -13 10 2 0 9 -6 19 -12 22 -7 3 3 5
22 4 46 -3 58 6 55 37 -2 14 1 27 5 30 5 3 7 -4 5 -15 -3 -13 0 -18 7 -14 8 5
9 1 5 -10 -4 -11 -3 -15 4 -11 5 4 8 12 6 18 -4 12 62 64 76 59 4 -1 6 1 6 5
-3 20 3 57 8 46 2 -7 13 -13 22 -13 14 0 17 7 14 33 -3 24 -2 28 6 17 13 -19
30 -3 33 31 1 14 8 26 15 26 9 0 10 -4 2 -14 -9 -10 -8 -13 2 -13 11 0 11 -2
-1 -10 -8 -5 -10 -10 -4 -10 5 0 26 17 45 37 18 20 26 31 17 24 -11 -8 -18 -9
-18 -3 0 6 5 14 10 17 6 4 8 11 5 16 -4 5 -1 9 5 9 8 0 10 9 6 24 -5 21 -3 24
14 21 13 -2 20 2 20 11 0 9 -5 12 -12 8 -10 -5 -10 -4 -2 5 6 7 21 13 32 14
12 0 24 7 27 15 3 8 0 10 -6 6 -7 -4 -6 3 2 17 7 13 12 26 11 29 -2 5 3 6 33
9 8 0 15 6 15 12 0 5 -4 8 -8 5 -5 -3 -8 9 -7 27 1 20 7 32 16 32 8 0 19 4 26
8 14 9 21 -2 18 -25 -4 -22 2 -23 22 -3 8 8 18 13 23 10 4 -3 13 1 19 8 8 10
7 14 -4 14 -8 0 -11 -5 -8 -11 4 -6 2 -7 -3 -3 -5 5 -9 12 -9 15 0 4 -4 13 -9
21 -6 9 -5 12 2 7 11 -6 27 10 27 29 0 5 8 11 19 13 11 3 16 0 11 -7 -3 -6
-10 -9 -14 -7 -4 3 -8 -1 -8 -9 0 -8 5 -13 11 -12 6 1 10 -4 8 -11 -1 -8 2
-11 9 -7 7 5 7 11 1 17 -7 7 -7 15 1 23 10 11 15 10 30 -2 9 -9 17 -13 17 -8
0 4 8 1 18 -6 14 -11 14 -10 -2 8 -10 13 -23 20 -27 17 -5 -3 -6 2 -2 11 3 9
9 13 12 8 12 -16 45 -39 37 -25 -6 9 -3 12 10 10 14 -2 19 3 19 22 0 16 7 26
19 28 13 3 16 0 10 -10 -4 -7 2 -4 14 6 23 20 30 32 12 21 -5 -3 -10 -1 -10 4
0 6 -5 11 -11 11 -5 0 -7 -6 -3 -12 5 -9 2 -9 -9 1 -9 7 -17 16 -17 19 0 3 3
2 7 -1 3 -4 12 -2 20 4 10 9 13 8 13 0 0 -17 43 -9 47 9 4 13 3 13 -7 0 -10
-13 -11 -13 -7 2 3 9 3 19 -1 22 -14 14 -10 34 6 28 10 -4 12 -7 4 -10 -13 -4
-6 -22 9 -22 5 0 9 12 9 26 0 14 4 23 10 19 6 -3 10 3 10 15 0 12 5 18 10 15
6 -4 8 -11 5 -16 -4 -5 -2 -17 4 -26 8 -15 9 -12 7 12 -2 17 1 39 7 50 5 10
11 28 11 40 1 11 7 19 14 17 7 -1 15 4 18 12 5 12 8 12 24 -2 11 -8 16 -20 13
-25 -3 -6 -1 -7 6 -3 8 6 9 12 2 20 -7 9 -7 17 2 26 10 12 9 12 -5 1 -12 -9
-18 -10 -18 -2 0 6 4 11 9 11 5 0 14 12 20 28 10 25 11 25 7 2 -3 -14 2 -34
10 -44 8 -11 14 -15 14 -9 0 7 -4 14 -10 18 -5 3 -7 12 -4 20 4 8 10 13 14 10
5 -3 11 -1 14 4 4 5 1 13 -5 17 -8 5 -9 3 -4 -6 5 -9 4 -11 -4 -6 -6 4 -9 12
-5 17 3 5 9 7 14 4 4 -3 8 11 8 31 0 19 3 38 6 41 3 4 6 -3 6 -15 0 -12 4 -22
9 -22 4 0 7 11 6 24 -2 18 1 23 13 21 10 -2 25 -4 35 -4 10 -1 16 -5 12 -11
-3 -5 -13 -7 -23 -4 -14 5 -15 4 -2 -5 8 -6 11 -11 6 -11 -5 0 -2 -8 7 -18 13
-15 14 -21 4 -32 -10 -12 -9 -12 6 -1 15 12 16 16 3 30 -13 14 -12 19 9 43 13
15 26 24 29 21 3 -4 -3 -17 -15 -29 -13 -14 -17 -24 -10 -29 7 -4 10 -1 9 7
-2 7 3 12 9 11 7 -2 12 0 12 5 -1 4 0 9 1 12 7 19 7 41 -1 46 -5 3 -9 10 -9
16 0 6 10 3 22 -8 20 -17 21 -17 9 -1 -8 10 -15 36 -15 57 l-1 39 22 -21 c12
-11 20 -25 17 -30 -3 -5 -12 -1 -21 9 -13 17 -13 17 -4 -3 6 -12 8 -24 5 -26
-2 -3 2 -11 10 -17 10 -8 16 -9 21 -1 4 6 3 10 -2 9 -20 -4 -24 2 -12 18 19
22 19 65 1 79 -12 9 -13 12 -2 19 9 6 11 4 5 -5 -5 -8 -3 -11 6 -8 8 3 14 10
14 16 0 5 3 14 7 18 4 3 6 -3 3 -14 -2 -12 3 -23 11 -26 9 -3 12 -11 9 -17 -5
-6 -12 -4 -22 8 -13 17 -14 17 -5 -2 5 -11 8 -28 7 -37 -2 -10 0 -20 5 -23 5
-3 7 3 5 12 -4 26 15 46 30 33 9 -8 15 -8 20 0 5 8 11 8 19 1 9 -8 13 -7 13 4
0 7 -3 13 -6 12 -3 -1 -6 3 -6 8 0 6 4 9 8 7 5 -1 6 2 3 7 -7 11 22 43 33 37
4 -3 8 0 9 7 1 7 3 24 5 39 3 33 17 49 18 22 1 -10 0 -23 -2 -29 -4 -14 -6
-85 -3 -85 2 0 8 10 15 21 9 17 8 20 -1 14 -10 -6 -11 -1 -6 21 4 16 7 40 7
54 0 24 0 24 14 6 10 -14 12 -23 4 -32 -7 -9 -6 -14 3 -20 7 -4 10 -4 6 1 -13
14 13 37 27 25 10 -8 15 -8 21 1 4 7 3 9 -4 5 -6 -3 -13 -2 -17 4 -4 6 -10 8
-15 5 -12 -7 -18 15 -14 53 3 21 0 31 -6 27 -6 -4 -8 -10 -6 -14 3 -4 1 -13
-4 -20 -5 -9 -7 -3 -7 17 1 17 6 30 11 29 5 -1 11 4 14 12 2 8 0 11 -6 7 -6
-3 -9 1 -7 11 1 10 -3 25 -9 33 -10 13 -9 13 7 1 19 -15 23 -2 5 18 -11 10
-10 12 2 9 14 -3 18 15 10 47 -5 23 1 46 10 40 7 -5 8 -11 1 -19 -6 -7 -6 -17
-1 -26 8 -12 10 -10 10 8 0 13 4 21 10 17 5 -3 8 -11 6 -18 -1 -7 -1 -9 1 -4
3 4 8 5 13 2 5 -3 7 2 6 12 -3 18 20 69 35 78 5 4 9 12 9 18 0 7 -4 6 -10 -3
-5 -8 -10 -12 -11 -7 -1 4 -3 12 -4 17 -1 6 -3 16 -4 23 -1 9 -3 9 -10 -1 -11
-17 -21 -17 -33 0 -7 9 -8 8 -4 -5 4 -12 2 -17 -6 -14 -7 2 -12 9 -11 15 3 15
-25 23 -33 10 -4 -7 -3 -8 4 -4 7 4 12 1 12 -6 0 -7 -9 -19 -20 -26 -19 -11
-20 -10 -15 11 5 17 2 24 -9 24 -8 0 -13 -4 -11 -8 3 -4 -2 -10 -10 -13 -8 -3
-15 -9 -14 -13 3 -20 -2 -27 -11 -13 -6 10 -4 21 8 35 16 19 16 19 -2 5 -18
-14 -19 -13 -13 5 7 19 6 19 -7 2 -11 -14 -15 -15 -20 -5 -3 7 -4 4 -3 -7 1
-12 -3 -19 -11 -17 -8 1 -11 -2 -7 -8 3 -6 11 -8 16 -5 5 4 9 1 9 -4 0 -6 -4
-11 -8 -11 -4 0 -8 -9 -9 -21 -2 -17 1 -18 12 -9 8 7 14 15 13 18 -4 31 7 29
32 -6 17 -23 33 -42 36 -42 4 0 0 8 -7 18 -12 15 -12 16 2 5 9 -7 19 -10 22
-6 4 3 7 0 7 -8 0 -11 2 -11 10 1 6 9 10 10 10 3 0 -6 -5 -15 -10 -18 -8 -5
-7 -12 2 -23 11 -15 11 -15 -3 -5 -9 7 -20 9 -25 5 -4 -4 -2 2 6 12 13 17 13
19 0 14 -8 -3 -15 -14 -14 -26 0 -12 -3 -19 -8 -16 -4 3 -8 11 -8 19 0 8 -4
17 -10 20 -5 3 -7 0 -4 -8 3 -8 -2 -17 -12 -21 -14 -5 -15 -4 -5 8 8 9 8 16 2
20 -5 4 -7 19 -5 33 l5 28 -25 -24 c-14 -13 -22 -30 -20 -40 5 -13 3 -13 -6 2
-6 9 -16 15 -21 11 -6 -4 -6 -11 2 -20 6 -8 8 -14 3 -14 -4 0 1 -7 12 -16 18
-15 18 -15 -5 -2 -25 15 -36 44 -20 53 4 3 4 16 -1 30 -9 24 -6 29 15 25 6 -1
5 4 -2 11 -6 6 -9 19 -6 28 4 13 3 14 -5 1 -6 -8 -9 -17 -6 -21 2 -4 -3 -12
-11 -19 -8 -7 -15 -20 -14 -29 0 -12 2 -11 9 4 8 19 9 19 9 -2 1 -12 -3 -25
-9 -28 -14 -9 -25 44 -11 58 6 6 11 15 11 20 0 11 -25 -14 -33 -33 -4 -12 -6
-12 -6 2 -1 13 -8 16 -28 12 -18 -3 -23 -1 -15 4 10 7 10 11 -3 22 -13 11 -15
8 -15 -17 0 -19 -9 -38 -25 -53 -14 -13 -25 -20 -25 -16 0 5 -8 2 -17 -5 -16
-13 -17 -12 -4 4 7 9 10 17 5 17 -4 0 -3 5 4 12 7 7 12 16 12 20 0 11 -23 6
-33 -7 -5 -6 -6 -1 -2 10 11 31 11 55 0 54 -5 -1 -9 -6 -7 -12 2 -7 0 -9 -4
-4 -4 4 -15 0 -24 -8 -15 -13 -17 -13 -17 0 0 8 3 13 5 10 3 -3 16 5 29 17 19
17 21 24 11 37 -7 9 -2 7 11 -4 13 -11 26 -18 30 -16 3 2 11 -6 17 -17 7 -14
14 -18 24 -12 12 7 12 12 2 22 -6 6 -12 8 -12 4 0 -5 -7 -3 -15 4 -8 7 -12 17
-8 24 3 6 3 8 -1 4 -5 -4 -19 -3 -32 2 -14 6 -26 6 -29 0 -4 -6 -11 -10 -16
-10 -6 0 -7 5 -3 11 4 7 -1 7 -16 -1 -20 -11 -22 -10 -16 5 5 15 4 16 -9 5
-19 -16 -9 -33 16 -25 14 5 19 2 19 -11 0 -14 2 -15 18 -3 15 13 16 12 3 -3
-7 -10 -17 -15 -22 -13 -4 3 -12 -2 -17 -11 -8 -15 -10 -15 -15 0 -4 9 -2 15
5 13 6 -1 13 4 15 11 4 10 -4 9 -33 -3 -36 -15 -37 -15 -21 3 9 10 14 22 10
25 -3 4 2 17 13 29 10 12 14 18 7 15 -6 -4 -14 -1 -17 5 -3 7 -4 4 -3 -6 2
-17 -5 -20 -48 -21 -27 -1 -40 0 -27 2 12 2 22 8 22 13 0 5 -9 7 -21 5 -15 -3
-18 -1 -11 8 5 7 8 23 6 37 -3 17 -1 21 5 12 6 -10 12 -5 21 20 7 18 12 37 11
42 -1 5 5 4 13 -4 10 -8 16 -8 16 -2 0 6 -8 15 -17 21 -16 9 -16 10 4 8 12 0
20 -4 18 -7 -2 -3 0 -12 5 -20 5 -9 4 -20 -3 -29 -9 -11 -9 -13 0 -8 7 5 10 1
8 -10 -2 -10 -4 -22 -4 -27 -1 -6 -8 -1 -17 10 -12 15 -15 16 -10 2 4 -12 0
-16 -15 -13 -12 3 -17 0 -13 -7 4 -6 3 -8 -3 -5 -5 3 -10 0 -10 -8 0 -11 4
-12 14 -4 10 9 13 6 14 -12 l1 -24 7 25 c7 25 27 33 47 18 8 -5 11 -1 10 14
-1 13 0 28 3 33 3 6 6 13 7 18 1 4 2 10 3 15 1 4 6 0 12 -8 9 -13 10 -12 5 2
-3 10 -1 20 4 23 10 6 15 -9 10 -30 -1 -5 8 -1 19 9 24 22 29 35 6 16 -10 -9
-15 -9 -16 -1 -2 13 -5 29 -9 36 -1 3 -2 17 -3 33 -1 22 3 27 21 26 13 -1 20
1 17 4 -2 3 1 12 7 21 8 10 4 9 -10 -3 -23 -20 -31 -9 -10 12 14 14 20 44 7
36 -5 -3 -7 -9 -4 -14 11 -17 -20 -29 -39 -14 -11 8 -14 14 -7 14 7 0 9 5 6
10 -3 6 -1 10 4 10 6 0 11 6 11 13 0 6 14 25 30 41 17 16 30 33 30 38 0 4 8 8
18 8 9 0 28 17 41 38 18 27 20 33 6 22 -17 -14 -17 -14 -5 7 8 12 17 20 21 17
4 -2 12 10 18 26 6 17 21 34 35 40 29 11 36 23 9 14 -12 -4 -10 1 7 17 14 13
20 20 13 15 -21 -14 -15 1 10 25 12 12 16 19 10 15 -9 -5 -11 -2 -7 8 3 9 10
16 15 16 5 0 9 9 9 20 0 11 5 20 11 20 5 0 7 -5 3 -12 -4 -7 -3 -8 4 -4 9 5 9
13 2 27 -10 18 -6 23 13 20 5 -1 6 2 3 7 -3 5 2 28 10 52 26 76 11 88 -20 16z
m-289 -563 c2 -6 0 -14 -6 -17 -5 -3 -7 -15 -4 -25 7 -28 -16 -36 -26 -9 -10
28 -9 44 3 40 5 -2 6 4 3 12 -4 9 0 13 11 12 9 -2 18 -8 19 -13z m-18 -78 c6
0 11 -4 10 -10 -1 -5 -5 -9 -11 -7 -5 1 -7 -2 -4 -7 3 -5 -1 -14 -9 -21 -8 -7
-13 -16 -10 -20 3 -5 2 -11 -3 -14 -4 -2 -8 5 -9 17 -4 78 -7 96 -16 90 -6 -4
-7 -1 -2 7 6 10 12 7 26 -11 10 -13 23 -24 28 -24z m-59 -195 c0 -5 -2 -10 -4
-10 -3 0 -8 5 -11 10 -3 6 -1 10 4 10 6 0 11 -4 11 -10z m446 -66 c-2 -23 19
-28 38 -9 9 9 20 13 26 10 5 -3 16 -3 23 2 18 11 38 13 31 2 -3 -5 -11 -6 -17
-3 -7 4 -8 3 -4 -2 5 -5 13 -9 18 -9 5 0 9 -4 9 -10 0 -16 -24 -12 -32 5 -5
12 -7 12 -7 -2 -1 -10 -6 -18 -12 -18 -5 0 -8 4 -4 9 3 5 0 13 -6 17 -8 5 -9
3 -4 -6 6 -9 4 -11 -6 -5 -11 7 -12 6 -2 -6 8 -9 9 -20 3 -29 -8 -12 -10 -10
-10 8 0 12 -4 22 -9 22 -5 0 -7 -9 -4 -19 4 -15 0 -19 -14 -17 -11 2 -17 11
-16 22 1 18 1 18 -12 1 -10 -14 -14 -15 -18 -4 -3 8 0 20 6 26 6 6 7 11 2 11
-8 0 13 19 21 20 1 0 1 -7 0 -16z m114 -50 c0 -7 -5 -16 -10 -19 -6 -4 -7 -12
-4 -18 4 -7 -4 -2 -17 11 -18 17 -21 25 -11 31 19 12 42 9 42 -5z m-350 -7 c0
-2 -10 -12 -22 -23 l-23 -19 19 23 c18 21 26 27 26 19z m21 -60 c-10 -9 -11
-8 -5 6 3 10 9 15 12 12 3 -3 0 -11 -7 -18z m36 1 c-3 -8 -6 -5 -6 6 -1 11 2
17 5 13 3 -3 4 -12 1 -19z m116 7 c-3 -9 -8 -14 -10 -11 -3 3 -2 9 2 15 9 16
15 13 8 -4z m-201 -30 c2 3 5 -2 5 -10 0 -19 1 -20 -28 12 -17 20 -18 23 -3
10 11 -9 23 -15 26 -12z m109 2 c-10 -9 -11 -8 -5 6 3 10 9 15 12 12 3 -3 0
-11 -7 -18z m26 -12 c0 -8 -4 -12 -9 -9 -5 3 -6 10 -3 15 9 13 12 11 12 -6z
m82 -132 c-4 -22 3 -25 16 -7 15 19 15 19 9 -1 -6 -16 -5 -18 7 -7 17 16 26
15 33 -4 3 -8 2 -12 -3 -9 -12 7 -25 -14 -27 -41 0 -12 -17 -39 -37 -59 -20
-21 -34 -41 -32 -46 9 -14 -13 -19 -24 -5 -8 10 -9 16 -1 21 6 3 7 11 4 17 -4
7 -2 8 4 4 12 -7 16 4 13 37 -1 9 3 17 9 17 6 0 8 5 5 10 -4 6 -11 7 -17 4 -6
-4 -6 0 1 13 6 11 7 24 3 29 -4 5 0 3 10 -4 10 -8 19 -9 22 -3 4 5 2 12 -4 16
-6 4 -8 11 -5 16 7 11 15 12 14 2z m-74 -83 c-8 -9 -12 -20 -8 -23 3 -4 4 -7
1 -7 -3 0 -11 7 -18 16 -11 12 -11 15 1 12 8 -2 13 2 12 8 -1 6 5 11 13 11 12
0 12 -3 -1 -17z m-90 -9 c3 -5 2 -12 -3 -15 -5 -3 -9 1 -9 9 0 17 3 19 12 6z
m48 -5 c3 -8 -4 -22 -16 -33 -22 -18 -22 -18 -6 2 9 11 14 26 12 33 -6 17 4
15 10 -2z m63 -1 c-1 -8 -8 -21 -16 -28 -10 -10 -11 -9 -4 3 5 8 9 18 10 23 3
14 4 17 8 17 2 0 3 -7 2 -15z m-112 -34 c3 -5 -1 -14 -8 -20 -10 -9 -16 -9
-21 -1 -4 6 -1 9 7 8 7 -2 12 3 11 10 -3 14 3 16 11 3z m-44 -25 c0 -2 -8 -10
-17 -17 -16 -13 -17 -12 -4 4 13 16 21 21 21 13z m89 -50 c-3 -3 -11 5 -18 17
-13 21 -12 21 5 5 10 -10 16 -20 13 -22z m-99 -17 c-6 -10 -13 -19 -16 -19 -2
0 0 8 5 19 6 10 7 22 3 26 -4 5 -1 5 6 1 9 -5 9 -12 2 -27z m40 -34 c-10 -12
-10 -18 1 -32 8 -10 9 -14 2 -10 -6 4 -16 0 -21 -9 -8 -15 -10 -15 -15 0 -5
11 -3 15 5 10 7 -5 9 0 6 14 -4 12 -2 22 3 22 5 0 8 3 8 8 -4 24 2 35 13 24 8
-8 8 -15 -2 -27z m-65 -4 c3 -5 2 -12 -3 -15 -5 -3 -9 1 -9 9 0 17 3 19 12 6z
m-221 -279 c2 -4 -4 -9 -15 -9 -10 -1 -19 2 -19 8 0 11 27 12 34 1z m-41 -47
c-3 -9 -8 -14 -10 -11 -3 3 -2 9 2 15 9 16 15 13 8 -4z m-140 -154 c-3 -11 0
-10 11 3 9 11 16 15 16 9 0 -6 -6 -16 -14 -22 -12 -10 -17 -8 -25 7 -7 14 -7
19 4 19 7 0 11 -7 8 -16z m-363 -336 c-7 -8 -9 -15 -5 -15 4 0 2 -7 -5 -15 -6
-8 -9 -18 -6 -23 3 -6 0 -15 -8 -21 -11 -9 -12 -4 -6 30 4 23 14 45 21 50 20
13 23 11 9 -6z m-82 -110 c-3 -3 -9 2 -12 12 -6 14 -5 15 5 6 7 -7 10 -15 7
-18z m-84 -64 c3 -4 -3 -16 -13 -25 -15 -14 -18 -14 -18 -1 0 8 7 15 14 15 8
0 11 5 8 10 -3 6 -4 10 -1 10 3 0 7 -4 10 -9z m-48 -38 c-2 -9 -9 -19 -17 -21
-11 -3 -11 -1 1 7 8 6 11 11 7 11 -5 0 -5 5 -2 10 9 15 14 12 11 -7z m-66 -48
c0 -2 -6 -8 -13 -14 -10 -8 -14 -7 -14 2 0 8 6 14 14 14 7 0 13 -1 13 -2z
m-160 -105 c0 -5 -5 -10 -11 -10 -5 0 -7 5 -4 10 3 6 8 10 11 10 2 0 4 -4 4
-10z"/>
<path d="M8336 3655 c-3 -10 -11 -13 -18 -9 -10 6 -10 4 -2 -7 6 -8 14 -21 17
-29 5 -10 6 -8 4 5 -1 11 2 26 7 33 4 7 6 15 3 18 -2 3 -7 -2 -11 -11z"/>
<path d="M8309 3568 c4 -28 6 -29 9 -9 2 13 0 27 -5 32 -6 6 -7 -3 -4 -23z"/>
<path d="M8730 3279 c0 -5 5 -7 10 -4 6 3 10 8 10 11 0 2 -4 4 -10 4 -5 0 -10
-5 -10 -11z"/>
<path d="M8806 3272 c-3 -5 1 -9 9 -9 8 0 12 4 9 9 -3 4 -7 8 -9 8 -2 0 -6 -4
-9 -8z"/>
<path d="M8715 3020 c-4 -6 -10 -8 -15 -5 -5 3 -16 -5 -24 -17 -10 -13 -16
-17 -16 -9 0 8 -3 11 -6 8 -4 -4 -1 -13 5 -21 9 -10 9 -16 1 -21 -6 -4 -9 -13
-6 -20 3 -8 -4 -25 -15 -39 -11 -14 -18 -26 -15 -26 3 0 19 18 35 40 15 21 31
36 35 33 6 -6 7 -1 10 35 0 11 7 26 15 35 7 10 11 17 8 17 -3 0 -9 -5 -12 -10z
m-18 -25 c0 -8 -4 -12 -9 -9 -5 3 -6 10 -3 15 9 13 12 11 12 -6z m-15 -44
c-19 -20 -31 -18 -14 2 7 8 9 17 5 21 -4 4 0 4 9 1 15 -6 15 -8 0 -24z"/>
<path d="M6606 4231 c6 -11 3 -13 -12 -7 -13 5 -16 4 -9 -3 6 -5 24 -12 40
-15 17 -4 23 -3 15 1 -8 3 -21 13 -28 22 -9 10 -11 11 -6 2z"/>
<path d="M3634 4184 c-18 -14 -18 -15 4 -4 12 6 22 13 22 15 0 8 -5 6 -26 -11z"/>
<path d="M5258 4173 c7 -3 16 -2 19 1 4 3 -2 6 -13 5 -11 0 -14 -3 -6 -6z"/>
<path d="M6010 4166 c0 -2 8 -10 18 -17 15 -13 16 -12 3 4 -13 16 -21 21 -21
13z"/>
<path d="M5910 4080 c25 -23 68 -59 95 -81 28 -21 77 -59 110 -85 36 -28 50
-36 35 -19 -14 15 -56 51 -95 79 -38 29 -76 61 -84 70 -8 10 -35 31 -60 48
l-46 29 45 -41z"/>
<path d="M4932 3979 c-32 -12 -27 -15 22 -11 27 2 55 -2 75 -12 17 -9 31 -14
31 -12 0 20 -97 46 -128 35z"/>
<path d="M5720 3833 c14 -17 43 -41 65 -53 46 -26 41 -21 -35 41 -48 39 -52
40 -30 12z"/>
<path d="M8433 3793 c0 -9 4 -10 14 -2 7 6 13 12 13 14 0 1 -6 2 -13 2 -8 0
-14 -6 -14 -14z"/>
<path d="M8394 3765 c-12 -13 -24 -32 -28 -42 -3 -10 3 -5 15 10 18 24 24 26
38 15 14 -12 14 -11 3 4 -8 9 -11 22 -7 28 11 17 1 11 -21 -15z"/>
<path d="M4713 3773 c9 -2 23 -2 30 0 6 3 -1 5 -18 5 -16 0 -22 -2 -12 -5z"/>
<path d="M1895 3735 c44 -40 125 -99 125 -91 0 3 -37 33 -82 66 -46 34 -65 45
-43 25z"/>
<path d="M4665 3760 c-3 -6 1 -7 9 -4 18 7 21 14 7 14 -6 0 -13 -4 -16 -10z"/>
<path d="M8249 3513 c-12 -32 -11 -42 2 -20 9 15 13 16 27 5 15 -11 15 -11 5
3 -9 10 -9 19 -2 26 6 6 4 10 -7 10 -8 0 -20 -11 -25 -24z"/>
<path d="M8346 3498 c3 -5 10 -6 15 -3 13 9 11 12 -6 12 -8 0 -12 -4 -9 -9z"/>
<path d="M8385 3481 c-3 -5 -2 -12 3 -15 5 -3 9 1 9 9 0 17 -3 19 -12 6z"/>
<path d="M8271 3434 c0 -11 3 -14 6 -6 3 7 2 16 -1 19 -3 4 -6 -2 -5 -13z"/>
<path d="M8331 3443 c-1 -17 16 -25 25 -12 4 7 3 9 -4 5 -5 -3 -13 0 -15 6 -4
9 -6 10 -6 1z"/>
<path d="M8487 3404 c-9 -9 3 -57 19 -75 30 -33 73 1 45 35 -7 9 -7 17 2 26 6
8 3 7 -8 -2 -15 -12 -25 -14 -38 -7 -9 6 -15 14 -12 20 7 10 2 12 -8 3z m40
-64 c-2 -24 -1 -24 -18 -3 -10 11 -10 14 -1 9 18 -11 15 5 -5 21 -16 13 -16
13 4 4 13 -7 21 -19 20 -31z m20 -12 c-3 -7 -5 -2 -5 12 0 14 2 19 5 13 2 -7
2 -19 0 -25z"/>
<path d="M8406 3359 c6 -8 10 -22 9 -32 -3 -14 0 -16 10 -7 11 9 14 7 13 -12
-1 -13 -5 -28 -10 -35 -5 -6 -5 -14 0 -17 14 -8 38 25 40 54 1 17 -1 21 -7 11
-7 -11 -10 -9 -16 8 -3 11 -16 26 -28 33 -19 9 -20 9 -11 -3z m45 -82 c-10 -9
-11 -8 -5 6 3 10 9 15 12 12 3 -3 0 -11 -7 -18z"/>
<path d="M8575 3361 c-3 -5 -2 -12 3 -15 5 -3 9 1 9 9 0 17 -3 19 -12 6z"/>
<path d="M8982 3355 c2 -11 -2 -20 -9 -20 -6 0 -15 -4 -20 -9 -5 -5 -3 -6 5
-2 7 4 12 2 12 -5 0 -6 10 0 21 15 12 15 19 30 15 33 -3 4 -6 0 -6 -8 0 -12
-2 -11 -11 1 -8 12 -9 12 -7 -5z"/>
<path d="M9057 3338 c19 -21 31 -25 14 -5 -6 8 -9 16 -6 19 3 2 -2 5 -10 5
-13 0 -13 -3 2 -19z"/>
<path d="M8610 3276 c0 -8 4 -17 9 -20 5 -4 7 3 4 14 -6 23 -13 26 -13 6z"/>
<path d="M8869 3285 c-1 -3 -3 -9 -4 -15 -1 -5 -4 -12 -5 -15 -4 -8 -7 -24 -9
-40 0 -8 -7 -15 -14 -15 -9 0 -12 -19 -11 -67 0 -47 4 -67 12 -65 7 1 12 -2
12 -8 0 -14 -13 -13 -29 3 -10 10 -12 4 -10 -30 2 -23 6 -40 10 -38 3 3 4 16
1 31 -4 24 -3 25 18 14 16 -9 19 -15 11 -23 -6 -6 -11 -15 -11 -21 0 -5 6 -1
14 10 8 10 11 23 6 28 -12 12 0 37 14 29 8 -4 8 -2 -1 7 -12 13 -6 43 7 35 5
-3 12 0 16 6 4 8 3 9 -4 5 -7 -4 -12 -1 -12 6 0 9 -3 9 -10 -2 -7 -11 -10 -6
-9 20 0 27 2 30 8 16 7 -19 8 -18 14 4 3 13 4 26 2 29 -3 2 -5 -1 -5 -8 0 -7
-5 -9 -11 -6 -6 4 0 20 16 43 l27 37 -26 -28 c-15 -17 -26 -22 -26 -14 0 7 3
17 7 21 7 7 13 56 6 56 -1 0 -4 -2 -4 -5z m-14 -148 c0 -40 -4 -64 -11 -64
-10 0 -10 84 1 115 8 22 10 13 10 -51z"/>
<path d="M8683 3255 c0 -8 3 -13 5 -10 3 3 12 -1 21 -7 10 -8 9 -4 -3 10 -23
26 -23 26 -23 7z"/>
<path d="M8923 3215 c0 -8 4 -12 9 -9 5 3 6 10 3 15 -9 13 -12 11 -12 -6z"/>
<path d="M8896 3211 c-3 -5 2 -15 12 -22 15 -12 16 -12 5 2 -7 9 -10 19 -6 22
3 4 4 7 0 7 -3 0 -8 -4 -11 -9z"/>
<path d="M8799 3196 c-1 -3 -2 -10 -3 -15 0 -5 -4 -12 -8 -16 -4 -4 -4 -13 -2
-20 3 -7 0 -16 -6 -20 -8 -5 -8 -10 0 -20 6 -7 10 -17 9 -21 -1 -5 -1 -18 0
-29 2 -18 4 -17 13 5 14 31 18 129 6 136 -4 3 -9 3 -9 0z m9 -111 c-3 -3 -9 2
-12 12 -6 14 -5 15 5 6 7 -7 10 -15 7 -18z"/>
<path d="M8935 3141 c-3 -5 -2 -12 3 -15 5 -3 9 1 9 9 0 17 -3 19 -12 6z"/>
<path d="M8906 3088 c3 -5 10 -6 15 -3 13 9 11 12 -6 12 -8 0 -12 -4 -9 -9z"/>
<path d="M8711 2894 c0 -11 3 -14 6 -6 3 7 2 16 -1 19 -3 4 -6 -2 -5 -13z"/>
<path d="M8583 2773 c4 -3 1 -13 -6 -22 -11 -14 -10 -14 5 -2 16 12 16 31 1
31 -4 0 -3 -3 0 -7z"/>
<path d="M8418 2713 c0 -5 -2 -15 -2 -23 -1 -8 -9 -14 -17 -14 -11 1 -15 -5
-12 -17 3 -11 12 -19 20 -19 8 0 12 -4 9 -9 -3 -5 1 -14 9 -21 12 -10 14 -8
10 9 -2 11 0 23 5 26 5 3 2 17 -5 32 -8 15 -12 30 -9 35 3 4 3 8 0 8 -3 0 -7
-3 -8 -7z m11 -66 c0 -9 -2 -8 -6 1 -2 6 -10 9 -15 6 -7 -4 -8 -2 -4 5 9 13
26 5 25 -12z"/>
<path d="M8387 2616 c-4 -9 -1 -15 6 -13 7 1 11 -4 9 -11 -1 -8 2 -11 8 -7 8
5 7 12 -2 23 -7 10 -13 18 -14 20 -1 2 -4 -4 -7 -12z"/>
<path d="M8275 2551 c-3 -6 -10 -9 -15 -6 -5 3 -9 -3 -9 -12 0 -10 -2 -30 -5
-46 -2 -15 0 -25 5 -21 5 3 9 0 9 -7 0 -7 3 -10 6 -7 3 4 1 16 -6 27 -12 23
-1 28 19 9 10 -9 12 -9 7 -1 -3 6 -2 14 4 18 10 6 9 40 -2 50 -3 4 -9 1 -13
-4z m12 -21 c2 -23 -13 -35 -23 -19 -5 8 -3 9 6 4 10 -6 12 -4 7 7 -3 9 -3 19
0 22 9 8 9 8 10 -14z"/>
<path d="M8199 2425 c-1 -3 -2 -8 -3 -12 -1 -5 -5 -15 -10 -23 -7 -12 -6 -13
4 -3 13 12 23 43 14 43 -2 0 -5 -2 -5 -5z"/>
<path d="M7916 2232 c-3 -5 1 -9 9 -9 8 0 12 4 9 9 -3 4 -7 8 -9 8 -2 0 -6 -4
-9 -8z"/>
<path d="M7847 2193 c-4 -3 -7 -13 -7 -21 0 -18 13 -7 16 13 2 17 1 18 -9 8z"/>
<path d="M7815 2173 c1 -10 7 -29 15 -43 7 -14 12 -26 11 -28 -2 -2 0 -6 3 -9
5 -6 3 12 -10 70 -6 30 -22 38 -19 10z"/>
<path d="M7775 2091 c2 -16 5 -17 28 -8 9 4 9 6 -1 6 -7 1 -11 5 -8 9 3 5 -1
9 -8 9 -8 0 -13 -7 -11 -16z"/>
<path d="M7779 2058 c-4 -12 -5 -57 0 -53 6 6 10 55 4 55 -1 0 -3 -1 -4 -2z"/>
<path d="M7703 1975 c0 -8 4 -12 9 -9 5 3 6 10 3 15 -9 13 -12 11 -12 -6z"/>
<path d="M7351 1644 c0 -11 3 -14 6 -6 3 7 2 16 -1 19 -3 4 -6 -2 -5 -13z"/>
<path d="M6903 1495 c0 -8 4 -12 9 -9 5 3 6 10 3 15 -9 13 -12 11 -12 -6z"/>
<path d="M6560 1474 c0 -8 5 -12 10 -9 6 4 8 11 5 16 -9 14 -15 11 -15 -7z"/>
</g>
</svg>
